<svg width="1280" height="720" viewBox="0 0 1280 720" fill="none" xmlns="http://www.w3.org/2000/svg">
<line x1="1247.38" y1="838.225" x2="1247.38" y2="-70.1724" stroke="#383838" stroke-dasharray="6 6"/>
<line x1="1191.99" y1="838.225" x2="1191.99" y2="-70.1724" stroke="#383838" stroke-dasharray="6 6"/>
<line x1="1136.61" y1="838.225" x2="1136.61" y2="-70.1724" stroke="#383838" stroke-dasharray="6 6"/>
<line x1="1081.21" y1="838.225" x2="1081.21" y2="-70.1724" stroke="#383838" stroke-dasharray="6 6"/>
<line x1="1025.82" y1="838.225" x2="1025.82" y2="-70.1724" stroke="#383838" stroke-dasharray="6 6"/>
<line x1="970.435" y1="838.225" x2="970.435" y2="-70.1724" stroke="#383838" stroke-dasharray="6 6"/>
<line x1="915.048" y1="838.225" x2="915.048" y2="-70.1724" stroke="#383838" stroke-dasharray="6 6"/>
<line x1="859.653" y1="838.225" x2="859.653" y2="-70.1724" stroke="#383838" stroke-dasharray="6 6"/>
<line x1="804.263" y1="838.225" x2="804.263" y2="-70.1724" stroke="#383838" stroke-dasharray="6 6"/>
<line x1="748.876" y1="838.225" x2="748.877" y2="-70.1724" stroke="#383838" stroke-dasharray="6 6"/>
<line x1="693.487" y1="838.225" x2="693.487" y2="-70.1724" stroke="#383838" stroke-dasharray="6 6"/>
<line x1="638.091" y1="838.225" x2="638.091" y2="-70.1724" stroke="#383838" stroke-dasharray="6 6"/>
<line x1="582.672" y1="838.238" x2="582.672" y2="-70.1593" stroke="#383838" stroke-dasharray="6 6"/>
<line x1="527.287" y1="838.238" x2="527.287" y2="-70.1593" stroke="#383838" stroke-dasharray="6 6"/>
<line x1="471.891" y1="838.238" x2="471.891" y2="-70.1593" stroke="#383838" stroke-dasharray="6 6"/>
<line x1="416.5" y1="838.238" x2="416.501" y2="-70.1593" stroke="#383838" stroke-dasharray="6 6"/>
<line x1="361.115" y1="838.238" x2="361.115" y2="-70.1593" stroke="#383838" stroke-dasharray="6 6"/>
<line x1="305.724" y1="838.238" x2="305.724" y2="-70.1593" stroke="#383838" stroke-dasharray="6 6"/>
<line x1="250.334" y1="838.238" x2="250.334" y2="-70.1593" stroke="#383838" stroke-dasharray="6 6"/>
<line x1="194.939" y1="838.238" x2="194.939" y2="-70.1593" stroke="#383838" stroke-dasharray="6 6"/>
<line x1="139.552" y1="838.238" x2="139.552" y2="-70.1593" stroke="#383838" stroke-dasharray="6 6"/>
<line x1="84.1709" y1="838.238" x2="84.171" y2="-70.1593" stroke="#383838" stroke-dasharray="6 6"/>
<line x1="28.7671" y1="838.238" x2="28.7672" y2="-70.1593" stroke="#383838" stroke-dasharray="6 6"/>
<line x1="-229.955" y1="688.188" x2="1508.19" y2="688.188" stroke="#383838" stroke-dasharray="6 6"/>
<line x1="-229.955" y1="632.794" x2="1508.19" y2="632.794" stroke="#383838" stroke-dasharray="6 6"/>
<line x1="-229.955" y1="577.404" x2="1508.19" y2="577.404" stroke="#383838" stroke-dasharray="6 6"/>
<line x1="-229.955" y1="522.014" x2="1508.19" y2="522.014" stroke="#383838" stroke-dasharray="6 6"/>
<line x1="-229.955" y1="466.62" x2="1508.19" y2="466.62" stroke="#383838" stroke-dasharray="6 6"/>
<line x1="-229.955" y1="411.23" x2="1508.19" y2="411.23" stroke="#383838" stroke-dasharray="6 6"/>
<line x1="-229.955" y1="355.844" x2="1508.19" y2="355.845" stroke="#383838" stroke-dasharray="6 6"/>
<line x1="-229.955" y1="300.455" x2="1508.19" y2="300.455" stroke="#383838" stroke-dasharray="6 6"/>
<line x1="-229.955" y1="245.06" x2="1508.19" y2="245.061" stroke="#383838" stroke-dasharray="6 6"/>
<line x1="-229.955" y1="189.671" x2="1508.19" y2="189.671" stroke="#383838" stroke-dasharray="6 6"/>
<line x1="-229.955" y1="134.281" x2="1508.19" y2="134.281" stroke="#383838" stroke-dasharray="6 6"/>
<line x1="-229.955" y1="78.8908" x2="1508.19" y2="78.891" stroke="#383838" stroke-dasharray="6 6"/>
<line x1="-229.955" y1="23.501" x2="1508.19" y2="23.5012" stroke="#383838" stroke-dasharray="6 6"/>
</svg>
